<svg aria-hidden="true" style="position:absolute;overflow:hidden" xmlns="http://www.w3.org/2000/svg"><defs><symbol id="icon-envelope" viewBox="0 0 43 32"><path d="M38.667 0H4C1.795 0 0 1.795 0 4v24c0 2.205 1.795 4 4 4h34.667c2.205 0 4-1.795 4-4V4c0-2.205-1.795-4-4-4zm0 2.667c.181 0 .355.037.512.104L21.334 18.238 3.489 2.771c.151-.065.327-.104.512-.104h34.667zm0 26.666H4A1.333 1.333 0 0 1 2.667 28V5.587l17.792 15.421c.233.203.539.327.875.327s.642-.124.876-.328l-.002.001L40 5.587V28c0 .736-.597 1.333-1.333 1.333z"/></symbol><symbol id="icon-linkedin" viewBox="0 0 144.083 144"><path d="M72.041 11.166c-33.543 0-60.833 27.29-60.833 60.834 0 33.545 27.29 60.834 60.833 60.834 33.544 0 60.835-27.289 60.835-60.834-.001-33.544-27.292-60.834-60.835-60.834zm0 115.668c-30.235 0-54.833-24.598-54.833-54.834 0-30.235 24.598-54.834 54.833-54.834S126.876 41.765 126.876 72c-.001 30.236-24.6 54.834-54.835 54.834z"/><path d="M41.143 59.11h14.078v36.734H41.143z"/><ellipse cx="48.042" cy="46.75" rx="7.125" ry="6.5"/><path d="M90.608 58.28c-2.883 0-5.326.525-7.334 1.574-2.006 1.05-3.988 2.796-5.949 5.24V59.11h-13.11v36.734h14.078V78.203c0-3.344.531-5.66 1.592-6.952 1.061-1.291 2.443-1.937 4.15-1.937 1.545 0 2.744.479 3.598 1.436.854.957 1.279 2.588 1.279 4.895v20.199h14.148V72.497c0-4.843-1.102-8.423-3.305-10.741-2.2-2.318-5.251-3.476-9.147-3.476z"/></symbol><symbol id="icon-smartphone" viewBox="0 0 20 32"><path d="M17 0H3C1.346 0 0 1.346 0 3v26c0 1.654 1.346 3 3 3h14c1.654 0 3-1.346 3-3V3c0-1.654-1.346-3-3-3zM3 2h14a1 1 0 0 1 1 1v21H2V3a1 1 0 0 1 1-1zm14 28H3a1 1 0 0 1-1-1v-3h16v3a1 1 0 0 1-1 1z"/><path fill="#757575" style="fill:var(--color4, #757575)" d="M4.708 27.478a.889.889 0 0 1 .001 1.319l-.001.001a1.048 1.048 0 0 1-1.417 0l.001.001a.889.889 0 0 1-.001-1.319l.001-.001a1.048 1.048 0 0 1 1.417 0l-.001-.001z"/></symbol><symbol id="icon-github" viewBox="0 0 1000 1000"><path d="M500 10C236.3 10 22.6 229.4 22.6 500S236.4 990 500 990c263.7 0 477.4-219.4 477.4-490S763.7 10 500 10zm143.3 930.1c-23 4.6-31.1-9.9-31.1-22.3 0-15.2.5-65.2.5-127.2 0-43.3-14.5-71.6-30.7-86 100.8-11.4 206.5-50.7 206.5-228.8 0-50.6-17.5-92.1-46.5-124.5 4.6-11.7 20.2-58.8-4.5-122.7 0 0-37.9-12.5-124.3 47.6-36.1-10.3-74.8-15.5-113.2-15.7-38.5.2-77.2 5.3-113.2 15.7-86.4-60-124.4-47.6-124.4-47.6-24.6 63.9-9.1 111-4.4 122.7-28.9 32.4-46.5 73.8-46.5 124.5 0 177.7 105.6 217.5 206 229.2-12.9 11.6-24.6 32-28.7 62-25.8 11.8-91.3 32.3-131.6-38.6 0 0-23.9-44.5-69.3-47.8 0 0-44.2-.6-3.1 28.2 0 0 29.7 14.2 50.2 67.8 0 0 26.6 90.2 152.4 62.2.2 38.7.6 67.9.6 78.9 0 12.3-8.2 26.6-30.9 22.3C177.3 878.7 47.8 704.9 47.8 500 47.7 244 250.2 36.4 500 36.4c249.8 0 452.3 207.6 452.3 463.8 0 204.8-129.5 378.5-309 439.9z"/></symbol><symbol id="icon-location" viewBox="0 0 1024 1024"><path d="M512 905.114c-12.595 0-24.371-5.018-33.178-14.03-6.758-6.86-68.096-70.348-127.692-159.334-35.124-52.428-63.181-103.833-83.252-152.883-25.292-61.747-38.092-120.115-38.092-173.363 0-158.003 126.566-286.618 282.214-286.618s282.214 128.615 282.214 286.618c0 53.248-12.8 111.616-38.092 173.363-20.07 49.05-48.128 100.455-83.252 152.883-59.596 88.884-120.832 152.27-127.692 159.335-8.807 9.011-20.583 14.029-33.178 14.029zm0-745.268c-133.018 0-241.254 110.183-241.254 245.658 0 211.866 227.635 446.976 237.363 456.909 1.331 1.331 2.867 1.638 3.891 1.638s2.56-.307 3.891-1.638c9.728-9.933 237.363-245.043 237.363-456.909 0-135.373-108.236-245.658-241.254-245.658z"/><path d="M511.693 493.056c-62.567 0-113.46-50.893-113.46-113.46S449.23 266.24 511.694 266.24s113.459 50.893 113.459 113.46-50.893 113.356-113.46 113.356zm0-185.856c-39.936 0-72.5 32.46-72.5 72.5s32.461 72.498 72.5 72.498 72.499-32.46 72.499-72.499-32.46-72.499-72.5-72.499z"/></symbol></defs></svg>