<svg id="icon-location" viewBox="0 0 1024 1024"><path d="M512 905.114c-12.595 0-24.371-5.018-33.178-14.03-6.758-6.86-68.096-70.348-127.692-159.334-35.124-52.428-63.181-103.833-83.252-152.883-25.292-61.747-38.092-120.115-38.092-173.363 0-158.003 126.566-286.618 282.214-286.618s282.214 128.615 282.214 286.618c0 53.248-12.8 111.616-38.092 173.363-20.07 49.05-48.128 100.455-83.252 152.883-59.596 88.884-120.832 152.27-127.692 159.335-8.807 9.011-20.583 14.029-33.178 14.029zm0-745.268c-133.018 0-241.254 110.183-241.254 245.658 0 211.866 227.635 446.976 237.363 456.909 1.331 1.331 2.867 1.638 3.891 1.638s2.56-.307 3.891-1.638c9.728-9.933 237.363-245.043 237.363-456.909 0-135.373-108.236-245.658-241.254-245.658z"/><path d="M511.693 493.056c-62.567 0-113.46-50.893-113.46-113.46S449.23 266.24 511.694 266.24s113.459 50.893 113.459 113.46-50.893 113.356-113.46 113.356zm0-185.856c-39.936 0-72.5 32.46-72.5 72.5s32.461 72.498 72.5 72.498 72.499-32.46 72.499-72.499-32.46-72.499-72.5-72.499z"/></svg>